<svg width="48" height="48" viewBox="0 0 48 48" fill="none" xmlns="http://www.w3.org/2000/svg">
<rect width="24" height="24" fill="#C5C5C5"/>
<rect x="24" width="24" height="24" fill="#C5C5C5"/>
<rect x="24" y="24" width="24" height="24" fill="#C5C5C5"/>
<rect y="24" width="24" height="24" fill="#C5C5C5"/>
<rect width="4" height="4" fill="#CBCBCB"/>
<rect x="8" width="4" height="4" fill="#CBCBCB"/>
<rect x="16" width="4" height="4" fill="#CBCBCB"/>
<rect x="24" width="4" height="4" fill="#CBCBCB"/>
<rect x="32" width="4" height="4" fill="#CBCBCB"/>
<rect x="40" width="4" height="4" fill="#CBCBCB"/>
<rect x="4" width="4" height="4" fill="#CBCBCB"/>
<rect x="12" width="4" height="4" fill="#CBCBCB"/>
<rect x="20" width="4" height="4" fill="#CBCBCB"/>
<rect x="28" width="4" height="4" fill="#CBCBCB"/>
<rect x="36" width="4" height="4" fill="#CBCBCB"/>
<rect x="44" width="4" height="4" fill="#CBCBCB"/>
<rect x="44" y="12" width="4" height="4" fill="#C2C2C2"/>
<rect x="44" y="24" width="4" height="4" fill="#C2C2C2"/>
<rect x="40" y="24" width="4" height="4" fill="#C2C2C2"/>
<rect x="36" y="24" width="4" height="4" fill="#C2C2C2"/>
<rect x="44" y="36" width="4" height="4" fill="#C2C2C2"/>
<rect x="40" y="36" width="4" height="4" fill="#C2C2C2"/>
<rect x="36" y="36" width="4" height="4" fill="#C2C2C2"/>
<rect x="32" y="36" width="4" height="4" fill="#C2C2C2"/>
<rect x="28" y="36" width="4" height="4" fill="#C2C2C2"/>
<rect x="24" y="36" width="4" height="4" fill="#C2C2C2"/>
<rect x="44" y="16" width="4" height="4" fill="#C2C2C2"/>
<rect x="44" y="28" width="4" height="4" fill="#C2C2C2"/>
<rect x="40" y="28" width="4" height="4" fill="#C2C2C2"/>
<rect x="36" y="28" width="4" height="4" fill="#C2C2C2"/>
<rect x="32" y="28" width="4" height="4" fill="#C2C2C2"/>
<rect x="44" y="40" width="4" height="4" fill="#C2C2C2"/>
<rect x="40" y="40" width="4" height="4" fill="#C2C2C2"/>
<rect x="36" y="40" width="4" height="4" fill="#C2C2C2"/>
<rect x="32" y="40" width="4" height="4" fill="#C2C2C2"/>
<rect x="28" y="40" width="4" height="4" fill="#C2C2C2"/>
<rect x="24" y="40" width="4" height="4" fill="#C2C2C2"/>
<rect x="20" y="40" width="4" height="4" fill="#C2C2C2"/>
<rect x="44" y="20" width="4" height="4" fill="#C2C2C2"/>
<rect x="40" y="20" width="4" height="4" fill="#C2C2C2"/>
<rect x="44" y="32" width="4" height="4" fill="#C2C2C2"/>
<rect x="40" y="32" width="4" height="4" fill="#C2C2C2"/>
<rect x="36" y="32" width="4" height="4" fill="#C2C2C2"/>
<rect x="32" y="32" width="4" height="4" fill="#C2C2C2"/>
<rect x="28" y="32" width="4" height="4" fill="#C2C2C2"/>
<rect x="44" y="44" width="4" height="4" fill="#C2C2C2"/>
<rect x="40" y="44" width="4" height="4" fill="#C2C2C2"/>
<rect x="36" y="44" width="4" height="4" fill="#C2C2C2"/>
<rect x="32" y="44" width="4" height="4" fill="#C2C2C2"/>
<rect x="28" y="44" width="4" height="4" fill="#C2C2C2"/>
<rect x="24" y="44" width="4" height="4" fill="#C2C2C2"/>
<rect x="20" y="44" width="4" height="4" fill="#C2C2C2"/>
<rect x="16" y="44" width="4" height="4" fill="#C2C2C2"/>
<rect x="40" y="16" width="4" height="4" fill="#C2C2C2"/>
<rect x="36" y="20" width="4" height="4" fill="#C2C2C2"/>
<rect x="32" y="24" width="4" height="4" fill="#C2C2C2"/>
<rect x="37" y="9" width="4" height="4" fill="#C2C2C2"/>
<rect x="28" y="28" width="4" height="4" fill="#C2C2C2"/>
<rect x="33" y="13" width="4" height="4" fill="#C2C2C2"/>
<rect x="24" y="32" width="4" height="4" fill="#C2C2C2"/>
<rect x="20" y="36" width="4" height="4" fill="#C2C2C2"/>
<rect x="16" y="40" width="4" height="4" fill="#C2C2C2"/>
<rect x="12" y="44" width="4" height="4" fill="#C2C2C2"/>
<rect x="36" y="40" width="4" height="4" fill="#C5C5C5"/>
<rect x="40" y="36" width="4" height="4" fill="#C5C5C5"/>
</svg>
